<?xml version="1.0" encoding="utf-8"?><!DOCTYPE svg PUBLIC "-//W3C//DTD SVG 1.1//EN" "http://www.w3.org/Graphics/SVG/1.1/DTD/svg11.dtd"><svg version="1.1" id="Contours" xmlns="http://www.w3.org/2000/svg" xmlns:xlink="http://www.w3.org/1999/xlink" x="0px" y="0px" width="812.397461px" height="812.397461px" viewBox="0.000009 -0.000011 812.397461 864.268433" enable-background="new 0 0 812.397461 812.397461" xml:space="preserve" stroke="black" fill="none" stroke-linecap='round' stroke-linejoin='round'><path class="selected"  fill="#000000" opacity="1.000000" stroke="none" 
 	d="
M730.153921 401.518413 C743.322622 408.520427 755.159903 416.318645 761.866934 430.130229 C768.514517 443.818828 768.213125 457.632793 762.715200 471.229167 C759.081411 480.215434 754.758780 489.177959 749.226187 497.089214 C737.306143 514.133953 721.027334 525.456584 700.513296 530.294963 C691.296011 532.468852 682.110952 533.187541 672.737417 531.332012 C669.457388 530.682720 666.583609 531.064556 665.318106 535.361492 C661.417471 548.606609 653.025992 559.465618 645.274771 570.511455 C638.021841 580.847331 629.562368 590.328838 621.891714 600.382915 C618.433584 604.915508 614.447500 608.025676 609.180533 610.574260 C603.824331 613.166179 599.495108 618.044719 595.009268 622.235576 C586.189566 630.475505 578.132315 639.636333 568.726553 647.116985 C557.667593 655.912456 545.702505 663.626445 533.779776 671.261943 C520.537954 679.741924 507.125723 688.011577 493.368277 695.613994 C481.278433 702.295024 469.266592 709.373271 454.542349 709.442241 C446.118765 709.481670 437.692251 712.186504 429.286612 712.084331 C409.564932 711.844585 389.912954 710.017070 370.712515 705.157329 C367.205740 704.269634 364.064810 701.935771 360.755606 700.268291 C348.759573 694.223369 336.452383 688.711406 324.872793 681.953105 C316.559622 677.101177 309.324209 670.434184 301.419851 664.842876 C288.875723 655.969707 280.979849 643.351848 273.453421 630.480449 C266.882437 619.242900 260.776297 607.734355 254.388662 596.388408 C250.806814 590.026164 246.293203 584.065959 243.577383 577.366069 C238.947867 565.944866 235.205435 554.147014 231.454336 542.391155 C226.798452 527.799846 222.631949 513.052898 218.038687 498.440898 C211.552176 477.805828 204.822256 457.247417 198.289663 436.626689 C195.335745 427.302349 191.626577 418.374980 186.462759 410.011821 C182.558767 403.689006 183.503592 402.479411 190.672720 402.224101 C205.235098 401.705608 219.785696 400.861980 234.347769 400.331279 C237.193777 400.227641 240.062796 401.047344 242.934439 401.212810 C244.072500 401.278362 245.246328 400.721660 246.403921 400.448284 C245.523733 399.674785 244.744314 398.723918 243.746695 398.157207 C238.195730 395.003765 236.104300 391.822185 237.594168 385.895793 C238.389273 382.732952 240.839468 379.807170 243.053152 377.209392 C256.799063 361.078288 274.514700 349.888286 291.862600 338.229289 C295.579641 335.731182 298.918448 332.660198 302.352774 329.759807 C303.065420 329.157939 303.428640 328.142314 303.952871 327.317363 C302.931021 326.967693 301.892996 326.280071 300.890249 326.328227 C297.021292 326.514079 293.087393 327.593547 289.314566 327.157207 C270.564566 324.988811 254.216482 332.495952 237.581778 339.220439 C225.021475 344.297832 214.485342 352.104228 204.710501 361.339824 C192.777823 372.614238 180.384146 383.297099 166.831778 392.764507 C158.173391 398.813091 150.542166 406.239543 140.656241 410.613384 C131.251455 414.774333 121.647757 417.868389 111.324209 418.235942 C106.106985 418.421611 100.750113 419.002910 95.679556 418.121440 C83.674368 416.034404 81.001577 404.401653 84.940725 394.177226 C88.021414 386.180705 94.531790 381.870159 101.401419 377.735149 C112.619742 370.982463 123.560354 363.746440 134.962271 357.325481 C155.989309 345.484172 178.760122 337.888957 202.119864 332.476421 C216.576651 329.126750 231.061087 325.031352 246.172354 325.221782 C246.911795 325.231120 247.659842 324.561260 248.403921 324.207744 C247.786123 323.561260 247.236380 322.443645 246.539602 322.342937 C241.001822 321.542461 235.419912 321.046001 229.883352 320.238262 C223.944815 319.371807 217.905508 318.735820 212.177054 317.077434 C209.172415 316.207439 206.726004 313.381572 204.064016 311.390117 C203.729300 311.139629 203.352652 310.515056 203.444021 310.190044 C204.702139 305.719097 205.353201 300.892436 207.542654 296.918682 C209.892996 292.653179 214.607962 291.487041 219.554007 291.195659 C230.689932 290.539653 240.680533 294.508159 250.380423 298.927287 C261.615713 304.045879 272.290213 310.387248 283.472464 315.634563 C287.759268 317.646160 292.738455 318.297466 297.471975 319.203777 C300.937307 319.867229 304.512381 320.033550 308.048758 320.189983 C308.806509 320.223491 309.608328 319.259075 310.389761 318.754375 C309.761587 318.259075 309.139517 317.755779 308.504263 317.269756 C304.834768 314.462505 300.792898 312.028362 297.555960 308.789409 C285.254629 296.480144 273.004812 284.105510 261.137381 271.380718 C250.702444 260.191936 240.896902 248.418682 230.626700 237.072612 C226.145498 232.121929 223.968008 232.434673 218.563650 236.527995 C209.835379 243.138896 204.957144 252.871379 198.038443 260.920513 C190.309195 269.912883 181.575003 278.033367 173.499380 286.738567 C165.639212 295.211467 155.823660 299.309978 144.575735 300.173992 C141.312735 300.424541 137.917349 299.785564 136.376761 295.908122 C134.341604 290.786113 135.020804 286.839336 138.940115 282.290386 C148.728567 270.929607 160.368155 261.699199 173.359304 254.351055 C185.464468 247.504131 197.965628 241.357768 210.275747 234.871318 C211.380728 234.289043 212.362906 233.473735 213.402090 232.766582 C212.108938 232.267192 210.705557 231.154827 209.539908 231.364482 C199.338614 233.198406 188.897696 234.371318 179.068594 237.460552 C160.251211 243.374736 141.378653 249.463786 123.284475 257.238567 C101.431021 266.628703 79.238760 274.873027 56.770010 282.583599 C42.401175 287.514568 28.347586 287.873271 14.054007 283.252727 C-1.587900 278.196330 -4.035837 261.148662 6.025564 251.068828 C17.953726 239.118755 32.805716 232.831218 48.611563 228.295513 C59.191031 225.259624 69.857412 222.794780 81.034170 223.221538 C94.888540 223.750530 108.761465 223.790813 122.616201 224.311626 C134.847769 224.771587 147.063772 225.632427 159.289663 226.257244 C166.981802 226.650432 174.678030 226.985271 182.376455 227.206584 C183.373221 227.235271 184.394156 226.425945 185.403921 226.004741 C184.551748 225.426006 183.745962 224.432048 182.840506 224.331035 C170.069815 222.905742 157.140738 222.384197 144.544607 220.052593 C131.437979 217.626567 118.634634 213.536540 105.734243 210.042949 C102.925650 209.282390 100.293142 207.893535 97.534414 206.922038 C93.561636 205.523052 92.059683 201.274578 92.885183 198.786846 C93.981131 195.484050 97.493155 191.009868 100.408499 190.653850 C109.168264 189.583965 118.156729 189.943462 127.029776 190.336040 C145.569021 191.156169 162.434378 198.649883 179.692862 204.389934 C185.790640 206.418010 191.428579 209.833965 197.263357 212.643474 C198.240164 213.113933 199.121450 214.088359 200.099051 214.165019 C201.063833 214.240764 202.094839 213.473186 203.096792 213.075542 C202.594473 212.368450 202.229666 211.477519 201.568472 210.982768 C194.964590 206.040630 187.772757 201.741008 181.784842 196.148723 C169.163748 184.361492 152.738455 178.602947 139.289908 168.244487 C133.312979 163.640972 127.349173 158.988506 121.711050 153.984538 C112.752371 146.033550 103.801809 138.039165 95.338675 129.572460 C83.631582 117.860484 73.427664 104.862255 64.512747 90.880077 C62.035696 86.995128 63.127798 82.728984 63.505789 78.677013 C63.896780 74.485912 64.832693 70.293376 66.000418 66.236797 C69.520132 54.009746 81.768972 45.805492 94.235708 47.421794 C101.611013 48.377971 107.054495 53.300456 111.100027 59.485362 C122.453848 76.843395 135.032400 93.206462 148.358511 109.146037 C160.388662 123.535564 170.741568 139.370220 181.324209 154.914714 C191.361563 169.658183 200.729300 184.857097 210.413076 199.841838 C211.780264 201.957439 213.166494 204.078105 214.753531 206.025676 C215.386648 206.802715 216.588186 207.116619 217.530996 207.641338 C217.523733 206.385417 217.889944 204.975444 217.446158 203.899578 C215.214956 198.490703 212.778616 193.166240 210.402762 187.817363 C204.525442 174.585124 198.019522 161.587200 192.982107 148.042888 C189.689810 139.190410 188.291800 129.591716 186.500906 120.240001 C185.599051 115.530528 186.894888 111.362926 191.984243 109.113811 C196.808584 106.981792 200.695791 108.705272 204.216787 111.653148 C209.788931 116.318218 211.549673 122.944988 212.342642 129.743328 C213.574331 140.301982 214.404776 150.907512 215.400015 161.493633 C215.431082 161.824016 215.288138 162.219402 215.423575 162.483135 C216.081228 163.763896 216.806265 165.010051 217.507437 166.268413 C217.806265 164.969646 218.441580 163.647441 218.353079 162.375591 C217.146414 145.027568 217.542837 127.457012 211.433645 110.761028 C211.218557 110.173107 211.421866 109.437847 211.401358 108.772136 C211.071585 98.076854 209.643911 87.276775 210.657950 76.710918 C212.212698 60.511180 210.680044 43.963207 216.283804 28.129741 C220.126028 17.273418 226.647635 8.677440 235.945242 2.448284 C243.372183 -2.527516 250.624014 1.002605 257.603201 4.885539 C264.349905 8.639018 266.540945 15.174205 267.207144 21.800395 C268.275015 32.421703 269.105398 43.260356 268.190786 53.847728 C266.222586 76.630565 262.460257 99.249706 255.824698 121.170207 C250.240652 139.616619 243.286673 157.643779 237.290030 175.971355 C233.589224 187.282146 230.820120 199.088359 232.663382 210.912517 C234.157522 220.497051 236.432852 229.968608 244.041617 237.722820 C261.632986 255.650798 277.910757 274.875530 295.650564 292.646770 C305.472036 302.485637 317.169058 310.451457 328.011648 319.272685 C329.890371 320.801189 331.639395 322.506877 333.620657 323.882671 C334.405203 324.427593 335.659536 324.296001 336.699942 324.472392 C336.601248 323.540996 336.781179 322.454387 336.361807 321.701640 C330.693960 311.529460 330.250418 300.079875 329.724112 289.062724 C329.229727 278.715129 331.479605 268.246379 332.363455 257.817546 C332.678763 254.097209 332.042898 250.885784 329.393728 247.517742 C311.603262 224.900127 299.314261 199.415630 291.505728 171.772441 C290.601919 168.572856 290.575247 165.084331 290.435904 161.717571 C290.014273 151.526042 289.136038 141.301006 289.601492 131.142436 C289.949759 123.544414 291.650198 115.802410 297.313528 109.929698 C300.885000 106.226238 304.540884 106.800578 307.405081 111.103374 C316.277029 124.431560 321.688223 139.224651 325.332327 154.664775 C327.711783 164.746684 329.886831 174.925456 331.275442 185.179668 C332.834158 196.689678 333.385489 208.335307 334.417532 219.918132 C334.658438 222.621623 335.016043 225.318401 335.437613 227.999736 C335.561636 228.788677 336.090323 229.513957 336.433462 230.268413 C337.090262 229.465679 338.226553 228.716716 338.323599 227.851238 C338.829275 223.342021 338.931692 218.787761 339.431265 214.277629 C340.681814 202.987468 342.114492 191.717632 343.387320 180.429851 C344.144339 173.716228 344.876455 166.994487 345.375418 160.258220 C346.467581 145.512737 347.386526 130.754466 348.409109 116.003734 C349.385672 101.916454 349.808218 87.755779 351.599356 73.771434 C352.943411 63.277995 355.884817 52.966503 358.460806 42.660381 C360.661917 33.853954 365.980093 26.937236 372.931570 21.254894 C383.170950 12.884990 398.066763 20.648296 401.366690 31.389324 C404.269400 40.837230 404.051931 50.439128 402.477469 60.146922 C401.424185 66.641338 401.488760 73.325481 400.310354 79.789317 C398.317923 90.718181 396.155874 101.650951 393.308950 112.381420 C388.660269 129.903392 383.760428 147.377910 378.247732 164.642986 C375.640066 172.809734 371.332144 180.429302 367.858450 188.324748 C360.291861 205.523113 352.600210 222.669475 345.300833 239.980937 C342.131338 247.497905 339.593496 255.304912 337.185598 263.108806 C336.075369 266.706767 335.917227 270.607707 335.456045 274.386943 C335.384817 274.970745 336.058096 276.191753 336.299917 276.169475 C337.185659 276.088115 338.280752 275.839031 338.853872 275.233623 C341.082022 272.880168 343.358206 270.519573 345.219534 267.881511 C350.387320 260.557170 354.873648 252.697002 360.534353 245.790447 C366.676260 238.296611 373.589224 231.376811 380.625174 224.689861 C387.792837 217.877605 395.397818 211.506084 403.030752 205.207622 C413.220511 196.799541 422.830252 187.318889 436.230093 184.024578 C442.265005 182.540935 448.173941 181.933391 453.291128 187.408611 C456.249624 190.574260 455.746695 193.976970 455.234121 197.071758 C454.199087 203.321391 451.345816 208.733745 446.790518 213.587505 C434.158438 227.047161 418.370352 235.939250 402.864370 245.306499 C394.466787 250.379375 386.225943 255.741557 377.616263 260.425395 C369.088308 265.064800 360.000418 268.682842 351.521902 273.402385 C346.965262 275.938762 342.877554 279.546977 339.125845 283.229473 C335.954947 286.341899 335.920340 290.836955 336.443594 295.042156 C337.306265 301.975871 337.420523 309.221538 339.650259 315.717998 C343.565786 327.125957 351.276480 336.077678 362.407950 341.168620 C372.900137 345.967204 383.545096 350.653850 394.522818 354.124065 C420.204214 362.242229 446.113028 369.644267 471.968863 377.202556 C474.547964 377.956523 477.395254 377.792278 480.118155 378.054241 C478.207632 376.286479 476.470083 374.270488 474.355215 372.795696 C466.913931 367.606426 462.285269 360.757182 459.129141 352.143657 C456.977163 346.270427 452.252920 341.331462 448.632315 336.006389 C442.069326 326.353801 435.149527 316.850810 432.093130 305.366557 C430.480703 299.307659 429.172720 293.096782 428.526297 286.871562 C427.874502 280.594707 434.064810 277.358562 440.579458 279.890911 C446.621573 282.239665 448.909170 287.716594 451.302603 292.815044 C455.552481 301.867961 459.347281 311.148296 462.953238 320.480022 C463.848745 322.797527 463.125723 325.699138 463.484732 328.285320 C463.631582 329.343791 464.675039 330.277812 465.310659 331.268413 C465.722158 330.387981 466.182486 329.526836 466.537710 328.624309 C470.203238 319.309123 474.372671 310.148906 477.332388 300.613628 C479.511953 293.591899 480.704702 286.123088 481.264639 278.771831 C482.127188 267.450359 481.670157 256.028789 482.518179 244.705486 C483.341543 233.712505 488.322744 225.114971 499.355703 221.191265 C512.388784 216.556133 520.283072 227.996745 521.351797 236.990154 C523.278555 253.204875 515.978628 266.333904 507.180777 279.111614 C496.510122 294.609355 486.192617 310.359233 476.092398 326.235515 C472.550528 331.802898 470.060537 338.046489 467.216787 344.041362 C466.875357 344.761089 467.330801 345.858867 467.416983 346.781474 C468.221670 346.634746 469.191641 346.728069 469.806387 346.305217 C478.637686 340.229839 487.327993 333.945720 496.239004 327.991619 C507.567129 320.422588 518.722281 312.488811 530.612417 305.905010 C538.263540 301.668315 546.430777 297.846660 555.921988 298.125163 C565.873526 298.417034 566.884146 302.084392 563.634756 310.598186 C560.712637 318.254680 555.546133 323.923564 548.469595 327.585552 C537.652212 333.183391 526.873770 339.089031 515.501333 343.306865 C506.782950 346.540386 497.177359 347.391277 487.957754 349.260234 C482.567495 350.352886 477.074820 351.051372 471.787832 352.507366 C467.373404 353.723125 467.089346 357.650249 469.523672 360.414775 C476.324453 368.138164 483.309683 375.845622 493.326895 379.666606 C494.194326 379.997417 495.158316 380.240520 496.078360 380.243144 C508.911490 380.280315 521.770742 380.770854 534.569326 380.104106 C544.226797 379.600994 553.826162 377.727641 563.415274 376.233196 C573.083120 374.726482 582.780508 373.272136 592.329458 371.177226 C602.646597 368.913738 612.892202 366.221965 623.017569 363.208293 C643.620596 357.076030 664.259146 351.008647 684.618765 344.131999 C699.364737 339.151409 713.954580 333.518840 727.223745 325.060893 C728.244742 324.410137 729.887075 324.734111 731.240591 324.605083 C730.961660 325.777812 730.710196 326.957744 730.399160 328.121929 C729.076895 333.072612 728.145010 338.183452 726.237661 342.899028 C725.234121 345.380290 722.908438 348.132732 720.506582 349.112590 C704.251822 355.744243 688.004995 362.490703 671.386709 368.108867 C655.402456 373.512737 638.984366 377.639568 622.730948 382.235881 C619.571280 383.129375 616.276114 383.535259 613.082388 384.323833 C612.433096 384.484111 611.958853 385.353740 611.403921 385.896465 C612.044302 386.353862 612.706045 387.231426 613.321402 387.199870 C617.190298 387.001872 621.046866 386.340312 624.911001 386.314006 C640.910025 386.205242 657.033560 385.036724 672.874746 386.622539 C688.036123 388.140361 703.663565 389.071147 717.826407 396.134014 C721.733999 398.082622 725.871817 399.569621 730.153921 401.518413 M411.903921 686.268413 C431.772207 686.229595 451.636953 687.403301 470.960074 680.405254 C490.288076 673.405376 508.536856 664.376689 525.678457 653.239604 C533.724844 648.011577 540.800283 641.252544 548.134024 634.975017 C554.830435 629.242839 561.617544 623.550334 567.748526 617.241680 C574.171743 610.632488 580.067984 603.474895 585.815298 596.255107 C591.843496 588.682170 597.891714 581.049846 603.073477 572.898235 C609.137075 563.359416 614.111807 553.136089 619.851675 543.381938 C628.104727 529.357402 635.318228 514.829265 640.310904 499.358318 C645.398306 483.593791 650.002798 467.658977 654.296255 451.658550 C656.571524 443.178874 657.528921 434.354473 659.463858 425.772075 C661.308950 417.588848 662.755240 409.123271 666.095694 401.538860 C668.254141 396.637920 666.112661 397.236614 663.330557 397.318706 C657.796988 397.482036 652.275869 398.117168 646.742666 398.235576 C627.215933 398.653423 607.685049 398.879436 588.158316 399.296916 C580.792593 399.454387 573.436392 400.011516 566.071402 400.251201 C553.878164 400.647991 541.674551 400.778911 529.488516 401.319377 C520.253164 401.729045 511.043570 402.683147 501.813467 403.248332 C489.594595 403.996562 477.367178 404.603191 465.143179 405.267803 C458.948111 405.604656 452.752920 405.940715 446.557364 406.267192 C433.833731 406.937786 421.103445 408.261638 408.387198 408.139140 C375.951773 407.826579 343.657095 408.589153 311.424795 413.032817 C296.558218 415.082256 281.346975 414.719524 266.284597 415.234477 C251.928091 415.725322 237.562307 415.953960 223.199820 416.256023 C219.311026 416.337871 215.382864 415.964885 211.546743 416.421367 C210.060415 416.598308 207.727408 418.400798 207.617483 419.627422 C207.370108 422.386760 207.887137 425.377483 208.779471 428.044414 C211.125113 435.055217 214.231375 441.827068 216.321646 448.904582 C220.628286 463.486492 224.368765 478.234661 228.540762 492.857707 C231.170767 502.076091 234.215445 511.175334 236.971182 520.358867 C239.064627 527.335307 239.952627 534.893718 243.205984 541.258281 C251.176687 556.851299 260.509390 571.742473 268.712393 587.224224 C275.242178 599.548076 283.826590 610.108684 293.519522 619.959209 C297.037466 623.534282 299.952383 627.699870 303.440420 631.308025 C309.979483 638.072307 316.418142 644.992290 323.505911 651.148296 C328.818411 655.762554 335.082876 659.280864 340.922964 663.287822 C350.806814 670.069072 361.058706 676.314067 372.425039 680.162822 C384.835196 684.364971 397.689138 686.685771 411.903921 686.268413 M316.403982 327.768474 C315.416189 328.601787 314.421316 329.426799 313.441824 330.269756 C307.223684 335.621440 299.618887 339.162761 295.645132 347.294902 C288.831350 361.239360 283.496878 376.113078 272.426931 387.665874 C267.058340 393.268596 261.501089 398.362407 253.315115 399.319621 C252.309683 399.437236 251.386038 400.254680 250.424490 400.747844 C251.533194 401.254680 252.624624 402.157024 253.753408 402.206584 C263.770010 402.646282 273.801138 403.361553 283.812857 403.176616 C302.695486 402.827861 321.586721 402.254314 340.438650 401.159831 C353.742300 400.387432 366.974051 398.448100 380.261892 397.310649 C394.154593 396.121440 408.064566 395.044292 421.988211 394.334697 C434.658316 393.688884 447.356924 393.600566 460.043081 393.271221 C460.875235 393.249614 461.767080 393.453716 462.524160 393.214214 C463.225332 392.992351 463.783072 392.316387 464.403921 391.840373 C463.831045 391.316387 463.333975 390.483257 462.672354 390.320903 C459.479605 389.537639 456.182486 389.142742 453.031241 388.233440 C437.121695 383.642925 421.165945 379.187358 405.386770 374.179180 C394.976309 370.874858 384.210135 367.864421 374.717398 362.681621 C358.994803 354.097392 344.241507 343.751323 328.918692 334.411785 C324.948599 331.991802 322.362051 327.168804 316.403982 327.768474 M224.403921 23.768413 C223.403921 26.184947 222.265371 28.554424 221.426809 31.025768 C216.701040 44.953685 217.944693 59.610698 216.637686 73.924877 C215.748343 83.665538 217.015860 93.610423 217.428335 103.459392 C217.618155 107.989513 217.902090 112.528636 218.435721 117.028972 C220.013662 130.335643 221.859488 143.611186 223.364981 156.925578 C224.558279 167.478923 225.396231 178.072307 226.425650 188.644634 C226.479971 189.201640 226.850088 189.727886 227.073233 190.268413 C227.516836 189.781841 228.071646 189.355754 228.377310 188.794109 C228.814993 187.989910 229.299734 187.104595 229.368704 186.222942 C230.108267 176.767192 233.407461 168.090312 236.705801 159.284404 C241.733450 145.861736 246.322622 132.235881 250.261892 118.457256 C253.307180 107.805370 255.019949 96.775829 257.417105 85.934490 C260.251455 73.116283 262.574331 60.226940 262.365408 47.042766 C262.243521 39.351695 261.634085 31.669414 261.431570 23.978252 C261.208548 15.508006 257.288199 9.645397 249.119925 7.409099 C245.969107 6.546520 241.636343 6.020915 239.145254 7.514781 C232.987173 11.207591 227.712576 16.270946 224.403921 23.768413 M396.403860 36.768413 C395.932852 34.964061 395.668509 33.072856 394.953360 31.371074 C392.506765 25.549602 384.477224 21.236705 378.457083 24.468425 C374.888235 26.384288 371.909536 29.948802 369.490469 33.357524 C361.252127 44.966106 359.523001 58.866496 357.634756 72.338634 C355.611441 86.774425 355.360708 101.461925 354.417776 116.044841 C353.681875 127.425823 353.076529 138.815166 352.401236 150.200054 C352.083304 155.560466 352.015066 160.954204 351.347342 166.271709 C349.862112 178.098674 348.120108 189.894390 346.385550 201.688640 C345.327017 208.886882 344.032461 216.050578 342.981436 223.249858 C342.793142 224.539104 343.277029 225.926372 343.450674 227.268474 C344.435110 226.294048 345.829886 225.497356 346.340689 224.317790 C351.723501 211.889140 356.943716 199.390117 362.253286 186.929607 C365.934134 178.291545 370.238821 169.872600 373.265493 161.014263 C377.167227 149.594890 380.188284 137.866527 383.370718 126.211711 C386.522696 114.668132 389.690786 103.114665 392.297476 91.441753 C393.886343 84.326427 394.114004 76.915935 395.512808 69.747234 C397.618338 58.956432 397.913260 48.157482 396.403860 36.768413 M702.903921 509.268474 C704.097281 508.935161 705.321768 508.685344 706.478994 508.255107 C714.578604 505.243633 722.525381 502.159343 728.724600 495.576579 C736.189322 487.649883 740.589468 478.023601 745.511587 468.559184 C751.196280 457.628398 749.754019 446.980632 745.802725 436.205608 C741.925528 425.632610 732.815176 421.661479 723.098135 418.171916 C715.472403 415.433330 707.738272 414.891643 699.850699 415.375530 C698.324820 415.469097 696.187979 416.591655 695.545279 417.855998 C694.095450 420.707561 693.144522 423.888652 692.462881 427.037883 C691.363516 432.117473 690.805533 437.313335 689.730948 442.399333 C687.731314 451.863750 685.385855 461.256206 683.453482 470.733440 C682.191397 476.922161 681.736075 483.284221 680.317495 489.429729 C678.648794 496.658489 676.690176 503.869548 674.135611 510.823223 C672.904043 514.176067 674.379751 514.144328 676.518545 514.252422 C685.387808 514.700908 693.822867 512.869853 702.903921 509.268474 M103.903921 70.268382 C101.737295 67.001933 99.450369 63.807750 97.433706 60.451183 C94.795218 56.059703 90.721182 53.942302 87.961599 56.350871 C81.896170 61.644725 75.839834 67.108013 75.371634 76.079082 C75.290823 77.628520 74.748037 79.149242 74.485525 80.694591 C73.273001 87.834880 73.039297 94.707530 78.295828 100.717174 C86.066458 109.600994 93.167471 119.120098 101.415091 127.523174 C109.836966 136.103771 119.248343 143.721233 128.318899 151.654827 C138.694021 160.729534 149.654776 168.913921 161.892813 175.473186 C168.784231 179.166850 175.087942 184.053508 181.329702 188.829814 C185.734793 192.200603 189.553030 196.331951 193.733145 200.010295 C194.361380 200.563152 195.536062 200.495159 196.457937 200.714397 C196.439932 199.817363 196.734549 198.749370 196.352652 198.051433 C194.043875 193.831706 191.829702 189.526592 189.126089 185.562236 C176.626394 167.233379 164.207815 148.841411 151.293997 130.805828 C143.399710 119.780528 134.668692 109.353923 126.300345 98.668682 C119.011038 89.361156 111.703421 80.067974 103.903921 70.268382 M33.403921 239.768413 C24.486197 243.926799 15.928152 248.627666 9.175711 256.009014 C7.377554 257.974590 5.056021 260.667705 7.613333 262.770061 C19.579336 272.607402 33.768789 273.664165 48.366446 271.721721 C56.617544 270.623760 64.758108 268.715129 72.968741 267.287944 C79.666555 266.123638 86.741690 266.101726 93.032034 263.848918 C104.009939 259.917217 114.414541 254.416728 125.243155 250.027019 C135.648977 245.808574 146.239920 242.027141 156.848257 238.337749 C160.946463 236.912395 165.353567 236.397563 169.541739 235.195415 C170.927603 234.797710 172.068533 233.546794 173.321524 232.686015 C172.019278 232.213481 170.705435 231.315044 169.416983 231.350139 C165.886892 231.446208 162.351065 232.337566 158.846792 232.194682 C147.297476 231.723857 135.767019 230.798503 124.218313 230.306316 C112.379751 229.801860 100.501700 229.990093 88.688528 229.180217 C69.498159 227.864665 51.599295 232.844890 33.403921 239.768413 M223.403921 339.768413 C228.070059 337.768962 232.771109 335.844890 237.378042 333.717265 C238.540945 333.180217 239.403372 331.992473 240.403921 331.103740 C239.086355 330.825298 237.664175 330.075908 236.467398 330.341594 C224.901358 332.909648 213.311636 335.411235 201.847220 338.388591 C179.404593 344.217021 157.351004 351.460307 136.956472 362.521831 C122.574698 370.322246 109.067740 379.781841 95.460379 388.932231 C91.929068 391.306804 88.792166 395.807964 90.745718 400.071758 C91.907278 402.606914 96.329580 404.709270 99.509756 405.078533 C115.090200 406.888164 129.817373 402.705852 143.690908 396.245403 C155.727224 390.640422 167.122549 383.657207 178.780325 377.245281 C179.478079 376.861492 179.988638 376.139812 180.591971 375.581523 C189.498221 367.340373 198.206900 358.869914 207.394705 350.955547 C212.123892 346.881755 217.706778 343.798992 223.403921 339.768413 M442.403921 209.768413 C446.283194 205.079204 449.803946 200.121013 449.248037 193.696086 C449.113028 192.134136 446.990225 189.449443 445.867422 189.493022 C441.146719 189.676494 435.681021 189.405376 431.913687 191.671123 C422.861685 197.115459 414.431936 203.664348 406.097586 210.208782 C399.833609 215.127483 394.120230 220.745708 388.138296 226.025981 C382.779409 230.756267 376.884817 234.997173 372.138174 240.274028 C366.083181 247.005718 360.916617 254.540691 355.449209 261.791179 C354.843741 262.594036 354.774221 263.801067 354.456167 264.820659 C355.475760 264.766216 356.655264 265.028484 357.489492 264.607036 C363.831656 261.403484 370.239004 258.293743 376.371267 254.717876 C385.922110 249.148296 395.278250 243.244365 404.705069 237.462993 C417.841116 229.406841 431.336905 221.839885 442.403921 209.768413 M312.403921 152.768413 C311.737295 150.878520 311.130728 148.964885 310.393118 147.103069 C307.671377 140.233318 305.034658 133.324626 302.077505 126.556651 C301.213308 124.578685 299.390493 123.019542 298.007132 121.268413 C297.139395 124.054576 296.221365 126.826671 295.436819 129.636058 C295.220999 130.408885 295.379019 131.293895 295.407644 132.126018 C295.734976 141.651958 295.861258 151.191387 296.487295 160.697856 C296.829336 165.892070 297.604361 171.137615 298.902273 176.175029 C304.193777 196.711894 315.703482 214.530071 324.458853 233.555095 C324.931509 234.582073 326.200308 235.242656 327.098562 236.073772 C327.533682 234.754436 328.520926 233.343364 328.319143 232.129924 C326.121328 218.911418 324.006765 205.668926 321.327749 192.543498 C318.676199 179.552471 315.403921 166.688274 312.403921 152.768413 M491.403921 233.768413 C488.212271 241.403789 487.709219 249.494487 487.411978 257.610271 C487.044790 267.637004 486.936270 277.678752 486.291617 287.686687 C486.077139 291.015666 484.413687 294.230937 483.712027 297.561260 C483.495962 298.585979 484.271719 299.819682 484.593252 300.957683 C485.196768 300.248271 485.887686 299.595195 486.389029 298.819682 C488.764761 295.145122 491.056753 291.416362 493.437368 287.745036 C499.743399 278.020183 506.577505 268.593974 512.231314 258.505351 C516.087759 251.624187 516.611197 243.599529 515.397085 235.675640 C514.351431 228.850932 507.617178 224.453655 501.320059 227.033489 C497.903311 228.433391 495.025015 231.147197 491.403921 233.768413 M550.903921 304.268413 C550.237295 304.268413 549.495962 304.073711 548.915152 304.296916 C534.776846 309.729839 521.391836 316.374980 509.219595 325.672710 C500.958365 331.983013 491.540030 336.775493 482.668814 342.294536 C481.944571 342.745098 481.450186 343.565166 480.849112 344.213603 C481.869253 344.563335 482.965811 345.342754 483.894400 345.177593 C486.165152 344.773723 488.317740 343.700542 490.589102 343.305400 C507.695913 340.329143 524.249136 335.901958 539.063711 326.312114 C545.251211 322.306743 552.365713 319.498027 556.310049 312.767803 C557.694571 310.405681 558.392569 307.641277 559.403921 305.060527 C556.903921 304.796489 554.403921 304.532451 550.903921 304.268413 M181.403921 255.768413 C178.663626 257.601726 175.997549 259.559490 173.169912 261.246379 C162.268606 267.749797 152.397574 275.539104 144.178213 285.209270 C142.542715 287.133403 142.403250 290.329082 141.573904 292.938396 C143.947500 293.118144 146.328360 293.515056 148.693411 293.436687 C155.678335 293.205303 161.359182 289.935710 166.277823 285.252666 C173.094046 278.762859 180.032522 272.377422 186.489431 265.541789 C191.564322 260.169414 196.019522 254.207561 200.674490 248.446575 C201.496389 247.429485 201.947439 246.112651 202.569754 244.934245 C201.078238 245.315166 199.435721 245.416423 198.121573 246.125957 C192.661795 249.073589 187.301016 252.204631 181.403921 255.768413 M261.903921 367.268413 C256.155325 373.017009 250.131582 378.522380 244.757742 384.602275 C241.343679 388.464885 242.618399 392.442668 247.548147 393.697429 C250.444632 394.434673 254.741690 394.654704 256.733023 393.040325 C263.046988 387.921794 269.433218 382.459087 274.180655 375.953899 C279.797537 368.257305 283.749441 359.343547 288.381949 350.934673 C288.784536 350.203899 288.879873 349.303813 289.117910 348.482402 C287.787039 348.744426 286.153555 348.600994 285.173269 349.332683 C277.512747 355.049785 269.977713 360.935100 261.903921 367.268413 M169.903921 207.268413 C157.424978 203.601726 145.063528 199.436382 132.422110 196.459819 C125.114370 194.739116 117.360159 194.864421 109.794058 194.347392 C108.705313 194.272991 107.543997 195.260173 106.416311 195.756023 C107.365652 196.593486 108.180288 197.771221 109.287527 198.209880 C114.299856 200.195537 119.338797 202.148418 124.472891 203.784404 C132.729239 206.415203 140.987600 209.118022 149.397329 211.165080 C156.287954 212.842449 163.403433 213.590434 170.413565 214.784099 C177.101431 215.922893 183.770437 217.180522 190.476858 218.193279 C191.576956 218.359416 192.826956 217.532573 194.007681 217.164653 C193.113760 216.339885 192.358450 215.153118 191.303335 214.749187 C184.540152 212.159953 177.711233 209.742412 169.903921 207.268413 M209.403921 172.768413 C209.755117 173.786235 209.926321 174.923259 210.502005 175.792400 C211.260244 176.937297 212.336294 177.871745 213.275686 178.896648 C213.324087 177.526286 213.607596 176.115337 213.379568 174.792644 C212.474478 169.541484 211.103201 164.354717 210.469412 159.076213 C209.245291 148.881328 208.878042 138.560710 207.176565 128.457042 C206.470877 124.266796 203.581228 120.265605 201.014395 116.655010 C199.980948 115.201335 196.796804 114.020152 195.241507 114.566203 C193.835440 115.059917 192.521658 118.097087 192.571707 119.975292 C192.670950 123.702739 193.657217 127.420940 194.418142 131.113872 C197.365103 145.416301 202.986502 158.740886 209.403921 172.768413 M355.403921 686.768413 C373.958609 696.602886 394.230337 699.363750 414.718496 700.036357 C424.910513 700.370830 435.210196 698.485942 445.409048 697.194316 C452.577505 696.286601 459.668203 694.737285 466.768301 693.345439 C467.999258 693.104106 469.103994 692.219219 470.267080 691.631572 C468.957632 691.177104 467.608145 690.244853 466.345450 690.350444 C460.615347 690.829692 454.912832 691.631572 449.194204 692.260478 C442.817862 692.962016 436.397207 693.354717 430.062246 694.318584 C415.770193 696.492778 401.526419 695.759258 387.559866 692.720073 C376.873953 690.394756 366.530996 686.507915 355.997732 683.445537 C354.933462 683.136089 353.608084 683.724346 352.403921 683.895976 C353.237234 684.686748 354.070608 685.477641 355.403921 686.768413 M452.403921 306.768413 C449.403921 300.871074 446.469473 294.938518 443.341909 289.109599 C442.794790 288.089885 441.435659 287.505962 440.451407 286.720806 C440.338369 287.972759 440.009146 289.251750 440.161245 290.470622 C440.411367 292.473430 441.215811 294.419170 441.365225 296.420390 C442.443106 310.861247 449.890738 322.758830 456.618033 334.944988 C456.898550 335.453044 457.533194 335.765788 458.002798 336.169597 C458.469839 335.532817 459.200796 334.949626 459.343496 334.246929 C459.570059 333.130596 459.674185 331.855388 459.360708 330.784892 C457.108145 323.093242 454.737295 315.436321 452.403921 306.768413 M622.903921 577.268352 C623.963736 575.875224 625.050039 574.501262 626.079092 573.085735 C631.195669 566.047099 636.431875 559.087749 641.272329 551.863689 C642.088858 550.645305 641.175528 548.267925 641.061514 546.426006 C639.842276 547.452922 638.364859 548.289104 637.444204 549.536357 C629.076162 560.872173 620.856314 572.317363 612.487295 583.652324 C607.288931 590.692851 601.898672 597.591594 596.627310 604.578655 C596.266592 605.056743 596.180288 605.741985 595.966299 606.330852 C596.698233 606.310039 597.506216 606.478496 598.143301 606.221965 C598.997915 605.877788 599.897451 605.350566 600.472281 604.650920 C607.814566 595.716228 615.102408 586.736614 622.903921 577.268352 M292.403921 649.768474 C299.144217 655.175395 305.706045 660.828716 312.695669 665.891582 C316.530691 668.669292 321.035757 670.559429 325.353140 672.608501 C326.471182 673.139140 328.020437 672.761333 329.371634 672.800762 C328.688162 671.762432 328.222647 670.417827 327.278494 669.745708 C324.879873 668.038066 322.344046 666.482524 319.727041 665.129375 C305.780569 657.918193 295.041494 647.112407 285.509024 634.912883 C284.756888 633.950298 283.690664 633.233135 282.770437 632.401897 C282.877310 633.753093 282.530813 635.388896 283.169485 636.406169 C285.923452 640.792522 288.966238 644.997478 292.403921 649.768474 M228.403921 296.768413 C224.813345 296.601726 221.185843 296.063030 217.646536 296.413799 C215.653555 296.611308 213.714712 298.144206 211.952444 299.365581 C211.468802 299.700786 211.709646 301.081584 211.618094 301.982585 C212.303824 301.820720 212.985891 301.537639 213.675955 301.516399 C218.708059 301.361247 223.850760 300.551738 228.749258 301.306743 C235.939688 302.415019 242.953848 304.662456 250.049490 306.398479 C250.812674 306.585185 251.618094 306.599590 252.403921 306.693950 C251.916311 305.897807 251.594656 304.610393 250.915579 304.381023 C243.610830 301.914165 236.249624 299.614177 228.403921 296.768413 z"/><path class="selected"  fill="#000000" opacity="1.000000" stroke="none" 
 	d="
M769.653921 807.018413 C770.196890 808.308818 771.079214 809.722392 770.692740 810.332622 C766.217520 817.400005 759.344595 819.942241 751.488760 817.189556 C748.167593 816.025859 745.063101 814.136333 742.048819 812.271709 C741.167105 811.726421 740.906118 810.144267 740.412832 809.014507 C740.020987 808.117168 739.708731 807.185039 739.361075 806.268413 C738.375357 807.075542 737.041372 807.688335 736.463858 808.723247 C733.873037 813.365825 731.118887 817.102397 724.746084 816.407573 C720.757925 815.973003 719.083609 814.596538 719.370108 810.659038 C719.449453 809.567729 719.117910 808.446758 718.974844 807.339336 C717.934439 807.999126 716.832022 808.580669 715.871573 809.341411 C714.963125 810.060893 714.206778 810.971660 713.378286 811.793071 C708.227774 816.900005 701.799185 815.365459 699.398794 808.463115 C699.247671 808.028301 699.027945 807.616802 698.832510 807.198100 C698.245474 805.941142 697.654776 804.685893 697.065542 803.430034 C696.178335 804.621440 695.105459 805.716899 694.433462 807.019390 C689.466909 816.645488 684.137442 817.710674 677.677725 815.300517 C672.608511 813.409282 670.723501 810.313213 671.371328 804.415019 C671.478994 803.434062 671.158072 802.405986 671.035269 801.399761 C670.112661 801.901348 668.891836 802.181133 668.322867 802.945903 C666.550528 805.328472 665.207632 808.040630 663.358389 810.353496 C660.977652 813.330913 658.943838 817.197002 654.064444 816.250957 C649.653189 815.395488 647.551504 812.191020 646.422110 808.198833 C645.659414 805.502178 645.117056 802.743755 644.377554 800.039897 C644.137686 799.163188 643.777700 798.055278 643.110464 797.650249 C642.650747 797.371196 641.353994 797.901348 640.796011 798.444316 C636.277945 802.840557 631.765616 807.248760 627.418081 811.811870 C624.731192 814.632060 621.876944 817.324809 617.777823 816.158183 C614.283926 815.163799 612.574331 812.214336 612.349478 808.478496 C612.308462 807.797222 611.558706 807.158672 611.135977 806.500469 C610.311026 807.170757 609.366201 807.737163 608.681021 808.528423 C604.868399 812.930278 601.350821 817.613750 597.286734 821.764751 C592.632437 826.518657 586.826040 826.736431 583.861075 821.855083 C582.227530 819.165630 582.882559 815.056377 582.637320 811.577861 C582.588125 810.879375 583.311148 810.152324 583.367056 809.415019 C583.483999 807.869365 583.393667 806.307842 583.388540 804.752910 C582.092032 805.726177 580.678213 806.577983 579.521231 807.695537 C575.946035 811.148784 573.001822 815.622051 568.845816 818.032451 C559.426504 823.495342 547.397574 819.200298 546.506338 806.182109 C545.579702 792.645366 550.050161 780.120464 555.231924 767.846538 C555.507437 767.193828 555.041617 765.539531 554.554922 765.363506 C550.859854 764.027202 548.117178 765.618877 547.427237 769.551128 C544.484854 786.319072 535.729605 799.870464 524.243643 811.961284 C522.355948 813.948345 520.587637 816.069682 518.943106 818.263042 C513.954458 824.916973 507.347036 824.271709 500.586416 821.851665 C494.050161 819.511943 490.669912 813.540874 490.352408 806.306133 C489.818960 794.151592 492.739248 782.545879 495.372061 770.868755 C495.596792 769.871929 495.373770 768.774150 495.358755 767.723247 C494.436148 768.009136 493.329580 768.060283 492.619131 768.617046 C484.529287 774.957622 475.190664 777.764018 465.101919 778.210185 C461.093863 778.387432 457.130484 775.012309 457.481436 771.841777 C457.918081 767.898174 460.243643 765.917949 464.451773 765.142803 C473.033560 763.562114 481.667227 761.819316 489.924307 759.074443 C495.417349 757.248271 500.343130 753.652324 505.406241 750.651836 C506.354971 750.089702 507.326773 748.588970 507.312368 747.534770 C507.203238 739.575786 512.397940 734.612895 517.489004 729.850078 C521.667349 725.941020 524.546255 720.540630 530.984121 719.027934 C537.625479 717.467632 544.155752 719.892803 546.339468 726.339702 C549.176870 734.716777 550.739126 743.243389 548.566641 752.199565 C548.056631 754.302226 548.879263 758.223125 550.321768 758.990947 C553.263174 760.556377 556.410635 758.820537 558.241324 755.873638 C559.788443 753.383403 560.732412 750.482402 562.464956 748.150737 C566.191641 743.134868 570.820181 739.367534 577.545401 739.255229 C580.751700 739.201640 584.174673 739.600932 584.646353 743.221172 C585.014029 746.042827 584.615469 749.830303 582.943228 751.856548 C580.164541 755.223125 576.480948 758.662822 572.480581 760.029521 C564.278067 762.831523 560.670523 769.299297 558.641470 776.328838 C556.288199 784.481792 555.241324 793.114849 554.551138 801.614482 C553.930655 809.256694 559.560415 812.208476 566.917715 809.381694 C572.816885 807.115093 576.610342 802.758159 580.445669 798.183574 C581.844473 796.514995 583.528311 794.831890 585.447012 793.944438 C586.665396 793.381084 588.847647 793.839580 590.049673 794.651225 C590.952993 795.261211 591.376700 797.174663 591.334463 798.486064 C591.172720 803.520000 590.497061 808.547466 590.545523 813.572246 C590.560659 815.145854 592.250235 816.703472 593.173452 818.268413 C594.187491 817.164531 595.398550 816.184184 596.182242 814.935649 C599.910391 808.996074 603.580435 803.017925 607.148550 796.981059 C608.717642 794.325908 610.272696 791.600810 611.333731 788.722881 C612.670523 785.097026 615.623282 784.781108 618.321035 785.514140 C619.399160 785.806987 620.248892 788.831523 620.290030 790.633403 C620.362783 793.819316 619.570303 797.016704 619.485220 800.218486 C619.450918 801.515117 620.322134 802.835918 620.781241 804.145732 C621.821646 803.520488 622.951651 803.006328 623.887686 802.251567 C629.395865 797.810649 634.765005 793.191509 640.370962 788.879375 C643.952993 786.124004 647.107901 787.732158 648.477774 792.079082 C650.001822 796.915752 651.858145 801.685283 654.024527 806.269023 C655.540396 809.476421 657.528555 808.075054 659.192007 805.991924 C663.297110 800.851543 667.129141 795.441631 671.684439 790.733745 C674.071524 788.266826 677.581656 786.590801 680.885489 785.377666 C685.676748 783.618389 690.806265 782.795268 695.648916 781.152934 C697.139883 780.647441 698.798575 778.983013 699.303335 777.486064 C703.153677 766.066997 706.656363 754.530986 710.501455 743.110210 C711.009512 741.601421 712.840811 740.538066 714.059195 739.268413 C714.840811 740.613017 715.919790 741.868511 716.353994 743.317241 C718.563589 750.690044 713.771475 756.659160 711.848990 763.105937 C708.779776 773.397319 705.230703 783.529399 705.494864 794.413677 C705.577383 797.818218 706.637808 801.221904 707.484610 804.566753 C707.661978 805.267681 708.909414 806.188335 709.589590 806.130840 C710.244253 806.075420 711.110464 804.979350 711.357901 804.178325 C715.137930 791.941020 730.155630 780.675151 741.990713 779.299175 C746.238638 778.805278 748.703604 782.252666 747.409903 786.489238 C745.544912 792.596172 743.600699 798.606426 747.352774 804.860576 C751.102774 811.111431 758.269644 812.638164 763.995474 808.324077 C765.394644 807.269878 767.580069 807.259014 769.653921 807.018413 M499.903921 808.268413 C503.448111 816.598613 507.954947 816.891948 513.858511 813.036968 C516.956533 811.014140 519.806875 807.633159 521.242666 804.222881 C526.019278 792.877910 529.897940 781.157329 534.564932 769.762554 C536.237417 765.679057 534.260977 765.095317 531.295767 764.235210 C525.955191 762.686138 520.360220 761.553325 515.464102 759.075786 C511.435659 757.037334 509.770498 758.376079 508.623159 761.610576 C503.326895 776.541118 497.846426 791.460063 499.903921 808.268413 M518.403921 742.768413 C518.045401 748.711162 517.634878 754.728008 525.293692 756.622905 C528.177359 757.336406 531.128653 758.000102 534.073111 758.125957 C535.147574 758.171855 537.132803 756.708599 537.268301 755.734111 C538.193838 749.083110 539.462027 742.353008 539.224356 735.698223 C538.912466 726.967143 535.038321 725.200176 527.485586 728.733989 C522.027578 731.287578 520.760244 736.950786 518.403921 742.768413 M682.403921 796.768413 C681.403921 800.335674 680.305044 803.880351 679.479361 807.487529 C679.292715 808.302837 680.056265 809.335674 680.382437 810.268413 C681.389639 809.655498 682.752676 809.279765 683.345083 808.390483 C686.707266 803.343730 689.932974 798.203472 693.076651 793.017070 C693.576162 792.193096 693.424551 790.974590 693.573965 789.938457 C692.557608 789.841411 691.187246 789.275005 690.585684 789.728374 C687.905142 791.749248 685.444204 794.061504 682.403921 796.768413 M725.403921 806.768413 C726.014029 808.268413 726.624258 809.768413 727.234366 811.268413 C728.232168 810.160381 729.516958 809.200054 730.176870 807.918315 C732.695181 803.026470 735.038321 798.043437 737.369864 793.058574 C737.657217 792.444316 737.731070 791.469829 737.426016 790.934184 C737.233145 790.595195 735.977530 790.470928 735.507559 790.757549 C734.376211 791.447490 733.118887 792.249004 732.458731 793.336894 C729.988150 797.408672 727.737295 801.613506 725.403921 806.768413 z"/><path class="selected"  fill="#000000" opacity="1.000000" stroke="none" 
 	d="
M319.403921 819.268413 C320.403921 811.851909 321.420462 804.937724 322.386221 798.016460 C322.532278 796.969585 322.441824 795.889873 322.460745 794.825298 C321.420645 795.160747 320.258169 795.300884 319.360098 795.863140 C312.867483 799.927715 306.597403 804.379009 299.926138 808.117778 C292.851187 812.082500 283.334280 811.363872 279.450857 806.580547 C277.712637 804.439556 277.316580 801.179057 276.441397 798.385845 C276.187674 797.576152 276.384451 796.625469 276.374746 795.739360 C275.452505 796.014385 274.441763 796.131450 273.622610 796.590557 C268.883535 799.246074 264.391226 802.455547 259.428396 804.568950 C253.537771 807.077495 249.935232 804.742046 248.359549 798.550884 C248.145987 797.711894 247.332876 797.025493 246.797354 796.268413 C245.999624 796.929790 244.970694 797.443706 244.440481 798.275615 C240.102408 805.081401 234.694998 810.781597 227.946219 815.276836 C221.332571 819.682109 213.469168 817.525737 209.405874 810.933818 C202.796499 800.211162 200.671438 789.056011 203.241629 776.707500 C203.851614 773.777202 200.769339 774.146831 198.616568 774.542339 C193.499868 775.482402 188.391531 776.990459 183.245413 777.148906 C168.737112 777.595928 167.317984 769.262554 168.893484 757.472026 C169.757071 751.009380 174.867910 747.044048 179.739492 747.322612 C180.913870 747.389873 182.049551 748.134502 183.203116 748.567485 C182.748098 749.489849 182.287832 750.409648 181.838980 751.334941 C180.358328 754.386821 178.214651 757.309795 177.582815 760.529033 C176.885489 764.081645 178.726431 766.167461 183.081595 766.418682 C189.677664 766.799175 195.863028 765.359599 201.764639 763.072734 C204.416372 762.045146 206.970327 759.277202 208.330069 756.656230 C214.956228 743.884746 220.848562 730.678691 232.138113 721.053813 C235.810049 717.923320 239.468924 714.755596 243.349295 711.897441 C247.702444 708.691265 254.197256 708.304057 257.846060 711.350444 C261.943228 714.770976 260.835135 719.751567 259.965750 724.077495 C258.494070 731.400981 254.691153 737.336406 248.932303 742.465312 C240.073416 750.355327 233.040701 760.232768 222.252249 766.046123 C217.719229 768.488628 218.446890 773.853984 217.559866 778.002544 C216.551504 782.718364 216.253836 787.720073 216.558340 792.539897 C216.798086 796.336162 217.915640 800.289775 219.580679 803.718486 C221.026480 806.695781 224.083914 807.937358 226.629080 804.474956 C231.016165 798.507182 235.040823 792.272930 239.429190 786.306255 C247.689627 775.074932 257.258047 765.362651 271.381277 761.896953 C276.116812 760.734844 281.147146 758.222392 285.896841 762.250591 C292.587698 767.925151 292.811148 772.141338 287.442373 780.837749 C285.271231 784.354595 283.718130 788.277812 282.109366 792.110576 C280.374014 796.245220 281.111807 800.691631 284.764395 802.718608 C287.622000 804.304180 292.504568 804.922588 295.252066 803.531352 C304.118826 799.041240 312.710684 793.830913 320.747366 787.988628 C323.099112 786.279033 323.801748 781.617534 324.305288 778.169536 C326.220938 765.051006 330.650198 752.816875 337.665945 741.720928 C342.346609 734.318096 350.279837 734.008891 354.911856 740.554912 C356.372488 742.619121 357.115469 746.617046 356.110220 748.752178 C351.898306 757.698711 347.141714 766.419414 342.071341 774.916484 C339.938101 778.491313 336.518606 781.294780 333.707998 784.470195 C329.321463 789.426372 329.154043 795.838725 328.569265 801.780986 C327.621512 811.412334 327.789480 821.150371 327.382437 830.839092 C327.171011 835.870952 326.691214 840.891216 326.452810 845.922466 C326.416555 846.688579 327.032950 847.485698 327.347464 848.268413 C328.032950 847.494731 329.194449 846.795635 329.329031 845.935771 C330.460562 838.706645 331.392447 831.446514 332.406668 824.198711 C333.728506 814.753032 334.884451 805.276592 336.571280 795.895976 C336.884695 794.153057 339.370718 792.800884 340.854117 791.268413 C341.704092 793.405742 343.433523 795.634258 343.223379 797.661724 C342.766714 802.066387 344.384756 805.938335 348.538992 806.161235 C355.739492 806.547466 362.998648 806.602397 370.185598 806.106670 C373.123037 805.904033 375.974417 804.001567 375.418753 799.926616 C374.404165 792.485698 377.922598 786.252544 381.797171 780.625469 C386.410940 773.924907 396.828665 772.562114 404.035452 775.509136 C407.657644 776.990215 408.274466 782.600932 405.775198 788.369121 C403.178030 794.363262 398.870901 798.859722 393.351248 802.329082 C392.133841 803.094219 391.398855 804.626933 390.441763 805.806255 C391.905996 806.293559 393.355032 807.146465 394.836844 807.207744 C403.180899 807.553203 411.569265 808.657329 419.723929 805.408916 C420.898428 804.941142 422.825308 806.362163 424.403921 806.909160 C423.448538 808.150859 422.660696 809.581035 421.510305 810.603130 C415.008047 816.380351 407.260367 818.770854 398.821158 817.134136 C392.482718 815.904643 386.408438 813.355449 380.158438 811.600688 C378.417959 811.111919 376.448477 811.128520 374.622366 811.306621 C364.458365 812.298320 354.322683 813.676250 344.197134 810.731059 C343.205252 810.442485 340.721792 811.801006 340.549307 812.704204 C338.329458 824.329326 336.352835 836.002178 334.436453 847.683086 C333.890860 851.008891 334.351187 854.627422 333.212515 857.688579 C332.275625 860.206890 329.654654 862.098857 327.779959 864.268413 C325.987967 862.349346 323.815359 860.651714 322.528738 858.438945 C321.563345 856.778545 321.568350 854.467021 321.432119 852.426128 C320.705557 841.543559 320.070608 830.654888 319.403921 819.268413 M280.403921 777.768413 C281.030996 776.062114 281.658072 774.355937 282.285147 772.649639 C280.643606 772.855937 278.955252 772.882793 277.368155 773.297344 C266.896475 776.032329 259.345755 782.532085 254.383474 791.962383 C253.479605 793.680034 254.056204 796.176738 253.949392 798.313945 C256.011465 798.298808 258.335745 798.905132 260.091726 798.164409 C269.345388 794.260478 276.709646 788.290874 280.403921 777.768413 M226.403921 748.768413 C227.461172 748.711162 228.999746 749.088848 229.503347 748.531474 C237.006460 740.227397 244.406057 731.828716 251.731375 723.366924 C252.718435 722.226665 253.168509 720.621562 253.867300 719.231792 C251.734549 719.055644 249.536245 718.492168 247.491751 718.837871 C246.100393 719.073223 244.547354 720.326640 243.712515 721.561382 C237.848929 730.233623 232.153311 739.019145 226.403921 748.768413 M394.403921 781.768413 C389.577749 785.836406 387.961355 791.571514 386.477530 797.326518 C386.295645 798.031841 386.958853 799.143901 387.544668 799.776592 C387.827993 800.082378 389.167776 799.981426 389.473257 799.608867 C393.401724 794.816875 397.318899 790.008647 401.006277 785.032085 C401.723684 784.063823 401.448111 782.359722 401.630606 780.995098 C400.168325 780.972881 398.705008 780.909282 397.244192 780.945415 C396.461905 780.964580 395.683889 781.155132 394.403921 781.768413 M342.903921 764.268413 C344.670645 761.168315 346.623221 758.153789 348.108877 754.924419 C348.670706 753.703105 348.154837 751.985942 348.130301 750.494853 C346.757010 751.050517 344.662832 751.221660 344.127554 752.224468 C340.717276 758.614726 337.621206 765.174541 334.519156 771.724590 C334.229117 772.336894 334.616934 773.270244 334.690054 774.054546 C335.494497 773.726055 336.623831 773.627544 337.047537 773.029277 C338.942923 770.353496 340.637075 767.535259 342.903921 764.268413 z"/><path class="selected"  fill="#000000" opacity="1.000000" stroke="none" 
 	d="
M405.403921 759.268413 C402.498709 762.340434 399.821219 765.280010 396.570486 767.294292 C395.354788 768.047588 392.803152 766.644878 390.860708 766.225200 C391.380850 764.733867 391.658377 763.094463 392.462332 761.776225 C396.365530 755.376689 400.463980 749.096416 404.381399 742.705425 C406.385611 739.435527 412.657156 737.815654 415.619070 739.982890 C419.431387 742.772319 415.956167 745.313945 414.790396 747.123393 C412.105154 751.290874 408.585135 754.920513 405.403921 759.268413 z"/><path class="selected"  fill="#000000" opacity="1.000000" stroke="none" 
 	d="
M84.403921 776.268413 C87.316885 770.599590 91.571463 767.702983 97.666922 768.294536 C102.967520 768.808818 105.565115 773.836894 102.274649 777.707378 C100.050222 780.323833 97.124563 782.709575 94.023245 784.131206 C89.104971 786.385723 86.574270 784.656474 85.385000 779.351055 C85.185598 778.461528 84.737234 777.627910 84.403921 776.268413 z"/><path class="selected"  fill="#000000" opacity="1.000000" stroke="none" 
 	d="
M591.403921 774.268413 C594.297598 769.110210 597.663199 767.809551 601.879873 770.354350 C605.724844 772.675029 606.147696 776.241924 604.813223 780.489482 C603.829214 783.620952 602.862783 786.446636 599.368155 787.239482 C593.032950 788.676860 588.781363 783.802593 590.708975 777.456279 C590.977652 776.571636 591.174063 775.664897 591.403921 774.268413 z"/><path class="selected"  fill="#000000" opacity="1.000000" stroke="none" 
 	d="
M798.403921 786.268413 C799.439200 780.688823 801.752798 778.424053 805.839102 779.363872 C809.283804 780.155986 812.594351 781.780010 812.388296 786.275493 C812.186270 790.684551 809.184195 794.276348 805.853262 794.268291 C800.687491 794.255596 798.763052 792.318340 798.403921 786.268413 z"/></svg>